<?xml version="1.0" encoding="UTF-8" standalone="no"?><!DOCTYPE svg PUBLIC "-//W3C//DTD SVG 1.1//EN" "http://www.w3.org/Graphics/SVG/1.1/DTD/svg11.dtd"><svg width="100%" height="100%" viewBox="0 0 1903 567" version="1.1" xmlns="http://www.w3.org/2000/svg" xmlns:xlink="http://www.w3.org/1999/xlink" xml:space="preserve" xmlns:serif="http://www.serif.com/" style="fill-rule:evenodd;clip-rule:evenodd;stroke-linejoin:round;stroke-miterlimit:2;"><path d="M2,143.001c0,0 169.896,-1.846 171,4c1.104,5.846 19,11 19,11l-1,66l-191,201l2,-282Z" style="fill:none;"/><path d="M191,224.001c-198.044,-305.015 94,-210 94,-210" style="fill:none;"/><path d="M4,145.001l171,0l12,20l-1,71l-182,184l0,-275Z" style="fill:#f6f6f6;"/><path d="M175,145.001c0,0 10.001,7.922 12,20" style="fill:#f6f6f6;"/><path d="M302,144.001l147,1l-234,238l1,20l106,161l-61,2l-176,-178l-1,-16l218,-228Z" style="fill:#d7d7d7;"/><path d="M215,383.001c0,0 1.958,3.93 1,20" style="fill:#d7d7d7;"/><path d="M84,372.001c0,0 -2.721,8.4 1,16c3.721,7.6 130,-5 130,-5" style="fill:#d7d7d7;"/><path d="M359.5,344.001c76.153,-0 107.146,100.914 43.877,143.586c-46.168,31.138 -110.076,3.694 -120.781,-49.274c-9.784,-48.412 28.525,-94.312 76.904,-94.312Z" style="fill:#d7d7d7;"/><g><path d="M544.3,232.801l54.6,0l0,102.9l96.25,-102.9l71.4,0l-110.25,115.15l119.7,132.65l-76.3,0l-100.8,-117.6l0,117.6l-54.6,0l0,-247.8Z" style="fill:#fff;fill-rule:nonzero;"/><path d="M755.465,354.081c0,-19.833 3.325,-37.8 9.975,-53.9c6.65,-16.1 15.925,-29.808 27.825,-41.125c11.9,-11.317 26.017,-20.008 42.35,-26.075c16.333,-6.067 34.183,-9.1 53.55,-9.1c19.367,0 37.217,3.033 53.55,9.1c16.333,6.067 30.45,14.758 42.35,26.075c11.9,11.317 21.175,25.025 27.825,41.125c6.65,16.1 9.975,34.067 9.975,53.9c0,19.833 -3.325,37.8 -9.975,53.9c-6.65,16.1 -15.925,29.808 -27.825,41.125c-11.9,11.317 -26.017,20.008 -42.35,26.075c-16.333,6.067 -34.183,9.1 -53.55,9.1c-19.367,0 -37.217,-3.033 -53.55,-9.1c-16.333,-6.067 -30.45,-14.758 -42.35,-26.075c-11.9,-11.317 -21.175,-25.025 -27.825,-41.125c-6.65,-16.1 -9.975,-34.067 -9.975,-53.9Zm56.7,0c0,11.667 1.808,22.342 5.425,32.025c3.617,9.683 8.808,18.083 15.575,25.2c6.767,7.117 14.875,12.658 24.325,16.625c9.45,3.967 20.008,5.95 31.675,5.95c11.667,0 22.225,-1.983 31.675,-5.95c9.45,-3.967 17.558,-9.508 24.325,-16.625c6.767,-7.117 11.958,-15.517 15.575,-25.2c3.617,-9.683 5.425,-20.358 5.425,-32.025c0,-11.433 -1.808,-22.05 -5.425,-31.85c-3.617,-9.8 -8.808,-18.258 -15.575,-25.375c-6.767,-7.117 -14.875,-12.658 -24.325,-16.625c-9.45,-3.967 -20.008,-5.95 -31.675,-5.95c-11.667,0 -22.225,1.983 -31.675,5.95c-9.45,3.967 -17.558,9.508 -24.325,16.625c-6.767,7.117 -11.958,15.575 -15.575,25.375c-3.617,9.8 -5.425,20.417 -5.425,31.85Z" style="fill:#fff;fill-rule:nonzero;"/><path d="M1054.765,232.181l95.9,0c12.6,0 24.558,1.225 35.875,3.675c11.317,2.45 21.233,6.533 29.75,12.25c8.517,5.717 15.283,13.417 20.3,23.1c5.017,9.683 7.525,21.758 7.525,36.225c0,17.5 -4.55,32.375 -13.65,44.625c-9.1,12.25 -22.4,20.008 -39.9,23.275l63,104.65l-65.45,0l-51.8,-99.05l-26.95,0l0,99.05l-54.6,0l0,-247.8Zm54.6,102.55l32.2,0c4.9,0 10.092,-0.175 15.575,-0.525c5.483,-0.35 10.442,-1.4 14.875,-3.15c4.433,-1.75 8.108,-4.492 11.025,-8.225c2.917,-3.733 4.375,-8.983 4.375,-15.75c0,-6.3 -1.283,-11.317 -3.85,-15.05c-2.567,-3.733 -5.833,-6.592 -9.8,-8.575c-3.967,-1.983 -8.517,-3.325 -13.65,-4.025c-5.133,-0.7 -10.15,-1.05 -15.05,-1.05l-35.7,0l0,56.35Z" style="fill:#fff;fill-rule:nonzero;"/><path d="M1268.265,231.181l62.3,0l61.25,162.4l0.7,0l62.3,-162.4l58.45,0l-102.2,247.8l-43.75,0l-99.05,-247.8Z" style="fill:#fff;fill-rule:nonzero;"/><rect x="1549.065" y="233.202" width="54.6" height="247.8" style="fill:#fff;fill-rule:nonzero;"/><path d="M1635.444,358.032c0,-19.833 3.325,-37.8 9.975,-53.9c6.65,-16.1 15.925,-29.808 27.825,-41.125c11.9,-11.317 26.017,-20.008 42.35,-26.075c16.333,-6.067 34.183,-9.1 53.55,-9.1c19.367,0 37.217,3.033 53.55,9.1c16.333,6.067 30.45,14.758 42.35,26.075c11.9,11.317 21.175,25.025 27.825,41.125c6.65,16.1 9.975,34.067 9.975,53.9c0,19.833 -3.325,37.8 -9.975,53.9c-6.65,16.1 -15.925,29.808 -27.825,41.125c-11.9,11.317 -26.017,20.008 -42.35,26.075c-16.333,6.067 -34.183,9.1 -53.55,9.1c-19.367,0 -37.217,-3.033 -53.55,-9.1c-16.333,-6.067 -30.45,-14.758 -42.35,-26.075c-11.9,-11.317 -21.175,-25.025 -27.825,-41.125c-6.65,-16.1 -9.975,-34.067 -9.975,-53.9Zm56.7,0c0,11.667 1.808,22.342 5.425,32.025c3.617,9.683 8.808,18.083 15.575,25.2c6.767,7.117 14.875,12.658 24.325,16.625c9.45,3.967 20.008,5.95 31.675,5.95c11.667,0 22.225,-1.983 31.675,-5.95c9.45,-3.967 17.558,-9.508 24.325,-16.625c6.767,-7.117 11.958,-15.517 15.575,-25.2c3.617,-9.683 5.425,-20.358 5.425,-32.025c0,-11.433 -1.808,-22.05 -5.425,-31.85c-3.617,-9.8 -8.808,-18.258 -15.575,-25.375c-6.767,-7.117 -14.875,-12.658 -24.325,-16.625c-9.45,-3.967 -20.008,-5.95 -31.675,-5.95c-11.667,0 -22.225,1.983 -31.675,5.95c-9.45,3.967 -17.558,9.508 -24.325,16.625c-6.767,7.117 -11.958,15.575 -15.575,25.375c-3.617,9.8 -5.425,20.417 -5.425,31.85Z" style="fill:#fff;fill-rule:nonzero;"/></g></svg>
